<mxfile host="app.diagrams.net" modified="2022-12-14T09:49:36.991Z" agent="5.0 (Windows NT 10.0; Win64; x64) AppleWebKit/537.36 (KHTML, like Gecko) Chrome/107.0.0.0 Safari/537.36 Edg/107.0.1418.42" etag="N86Zmcw9m8QnRzA558Qw" version="20.5.1" type="github">
  <diagram id="VuliKSHWDo9FjF45E-hR" name="第 1 页">
    <mxGraphModel dx="1305" dy="794" grid="1" gridSize="10" guides="1" tooltips="1" connect="1" arrows="1" fold="1" page="1" pageScale="1" pageWidth="827" pageHeight="1169" math="0" shadow="0">
      <root>
        <mxCell id="0" />
        <mxCell id="1" parent="0" />
        <mxCell id="hNslKZuBfuBQHOVGL70Y-1" value="ACTIVE" style="swimlane;startSize=0;verticalAlign=top;fontSize=20;fontStyle=0" vertex="1" parent="1">
          <mxGeometry x="412" y="140" width="100" height="40" as="geometry" />
        </mxCell>
        <mxCell id="hNslKZuBfuBQHOVGL70Y-2" value="INIT" style="swimlane;startSize=0;fontSize=20;verticalAlign=top;fontStyle=0" vertex="1" parent="1">
          <mxGeometry x="240" y="140" width="100" height="40" as="geometry" />
        </mxCell>
        <mxCell id="hNslKZuBfuBQHOVGL70Y-3" value="" style="swimlane;startSize=0;fontSize=20;fontStyle=0" vertex="1" parent="1">
          <mxGeometry x="240" y="322" width="100" height="40" as="geometry" />
        </mxCell>
        <mxCell id="hNslKZuBfuBQHOVGL70Y-4" value="STOP" style="swimlane;startSize=0;fontSize=20;verticalAlign=top;fontStyle=0" vertex="1" parent="1">
          <mxGeometry x="412" y="320" width="100" height="40" as="geometry" />
        </mxCell>
        <mxCell id="hNslKZuBfuBQHOVGL70Y-5" value="" style="shape=flexArrow;endArrow=classic;html=1;rounded=0;entryX=0.5;entryY=0;entryDx=0;entryDy=0;" edge="1" parent="1" target="hNslKZuBfuBQHOVGL70Y-3">
          <mxGeometry width="50" height="50" relative="1" as="geometry">
            <mxPoint x="289.5" y="180" as="sourcePoint" />
            <mxPoint x="289.5" y="280" as="targetPoint" />
          </mxGeometry>
        </mxCell>
        <mxCell id="hNslKZuBfuBQHOVGL70Y-6" value="" style="shape=flexArrow;endArrow=classic;startArrow=classic;html=1;rounded=0;entryX=0.25;entryY=1;entryDx=0;entryDy=0;" edge="1" parent="1" target="hNslKZuBfuBQHOVGL70Y-1">
          <mxGeometry width="100" height="100" relative="1" as="geometry">
            <mxPoint x="314" y="320" as="sourcePoint" />
            <mxPoint x="434" y="180" as="targetPoint" />
          </mxGeometry>
        </mxCell>
        <mxCell id="hNslKZuBfuBQHOVGL70Y-7" value="" style="shape=flexArrow;endArrow=classic;startArrow=classic;html=1;rounded=0;" edge="1" parent="1">
          <mxGeometry width="100" height="100" relative="1" as="geometry">
            <mxPoint x="462" y="320" as="sourcePoint" />
            <mxPoint x="461.5" y="180" as="targetPoint" />
          </mxGeometry>
        </mxCell>
        <mxCell id="hNslKZuBfuBQHOVGL70Y-8" value="" style="shape=flexArrow;endArrow=classic;html=1;rounded=0;" edge="1" parent="1" source="hNslKZuBfuBQHOVGL70Y-2">
          <mxGeometry width="50" height="50" relative="1" as="geometry">
            <mxPoint x="342" y="159.5" as="sourcePoint" />
            <mxPoint x="412" y="159.5" as="targetPoint" />
          </mxGeometry>
        </mxCell>
        <mxCell id="hNslKZuBfuBQHOVGL70Y-9" value="" style="shape=flexArrow;endArrow=classic;startArrow=classic;html=1;rounded=0;entryX=0;entryY=0.5;entryDx=0;entryDy=0;" edge="1" parent="1" target="hNslKZuBfuBQHOVGL70Y-4">
          <mxGeometry width="100" height="100" relative="1" as="geometry">
            <mxPoint x="340" y="340" as="sourcePoint" />
            <mxPoint x="400" y="340" as="targetPoint" />
          </mxGeometry>
        </mxCell>
        <mxCell id="hNslKZuBfuBQHOVGL70Y-10" value="SLAVE" style="text;html=1;align=center;verticalAlign=middle;resizable=0;points=[];autosize=1;strokeColor=none;fillColor=none;fontSize=20;" vertex="1" parent="1">
          <mxGeometry x="246" y="320" width="90" height="40" as="geometry" />
        </mxCell>
      </root>
    </mxGraphModel>
  </diagram>
</mxfile>
